<?xml version="1.0" encoding="utf-8"?>
<!-- Generator: Adobe Illustrator 16.0.2, SVG Export Plug-In . SVG Version: 6.00 Build 0)  -->
<!DOCTYPE svg PUBLIC "-//W3C//DTD SVG 1.1//EN" "http://www.w3.org/Graphics/SVG/1.1/DTD/svg11.dtd">
<svg version="1.1" xmlns="http://www.w3.org/2000/svg" xmlns:xlink="http://www.w3.org/1999/xlink" x="0px" y="0px"
	 width="2591.676px" height="2375.703px" viewBox="0 0 2591.676 2375.703" enable-background="new 0 0 2591.676 2375.703"
	 xml:space="preserve">
<defs>
	<filter id="Adobe_OpacityMaskFilter" filterUnits="userSpaceOnUse" x="0" y="-0.001" width="2591.741" height="2375.763">
		<feColorMatrix  type="matrix" values="1 0 0 0 0  0 1 0 0 0  0 0 1 0 0  0 0 0 1 0"/>
	</filter>
</defs>
<mask maskUnits="userSpaceOnUse" x="0" y="-0.001" width="2591.741" height="2375.763" id="Layer_1_2_">
	<g filter="url(#Adobe_OpacityMaskFilter)">
		<path fill="none" stroke="#FFFFFF" stroke-width="80" stroke-miterlimit="10" d="M323.338,169.352
			c38.117-5.248,72.559-30.532,77.743-71.198c3.986-31.271-24.45-49.496-53.36-41.342c-29.114,8.211-51.042,43.299-47.058,72.759
			c3.962,29.295,31.011,37.667,57.039,38.895c23.772,1.122,60.357,2.681,77.533-17.838c3.875-4.629,9.104-16.342,5.975-22.546
			c-8.167-16.192-27.971,2.869-32.6,12.123c-7.402,14.798-7.55,44.258,11.208,51.013c6.11,2.2,15.071-1.465,20.156-3.796
			c25.508-11.698,44.963-33.18,54.497-59.176c5.865-15.993,8.155-31.526-13.211-19.03c-13.472,7.879-35.485,35.706-23.702,52.443
			c6.015,8.544,22.994,8.492,31.672,7.818c32.325-2.513,55.72-20.788,80.662-39.247c6.022-4.457,30.532-19.219,20.87-29.755
			c-10.88-11.865-44.596,6.33-52.905,13.034c-13.674,11.032-26.968,37.333-19.909,55.319c6.641,16.922,28.388,25.036,45.525,22.333
			c18.436-2.909,36.157-18.664,47.455-32.546c10.031-12.325,17.488-26.75,20.782-42.318c0.711-3.359,4.318-16.24,2.693-19.557
			c-0.044-0.089-0.333-2.854-0.409-3.238c-17.539-1.542-56.799,43.874-43.73,60.573c11.595,14.817,83.708-5.72,72.234-28.87
			c-11.125-22.448-64.092,35.766-41.782,54.863c10.266,8.788,35.168-0.986,44.575-4.156c16.137-5.439,31.872-12.388,48.048-17.559"
			/>
		<path fill="none" stroke="#FFFFFF" stroke-width="80" stroke-miterlimit="10" d="M881.338,143.352
			c47.014,6.299,109.43-8.592,142.612-46.043c13.02-14.695,2.554-23.625-14.028-30.847c-23.767-10.351-83.24-12.237-77.685,28.396
			c5.997,43.863,76.879,75.179,115.948,64.449c14.73-4.046,37.323-32.378,32.201-49.001c-6.246-20.27-39.432,4.86-44.38,16.746
			c-17.706,42.537,50.009,40.796,74.748,37.992c25.069-2.841,49.117-14.603,66.038-33.289c4.29-4.737,19.431-19.504,15.418-26.399
			c-16.184,18.657,16.908,49.777,29.831,60.857c22.311,19.13,55.458,14.375,81.561,1.959c26.278-12.499,64.866-46.256,50.896-80.827
			c-12.833-31.76-56.34,7.662-67.269,21.126c-18.11,22.31-38.555,57.266-11.713,81.01c41.542,36.748,106.56-22.995,135.057-49.463
			c13.761-12.782,28.188-25.768,37.406-42.425c2.345-4.236,11.184-21.152,7.418-26.417c-14.927-20.875-79.054,40.942-85.44,58.277
			c-5.929,16.09-2.579,29.568,15.375,34.318c31.063,8.219,69.304-4.964,97.657-16.968c34.117-14.444,70.061-30.919,93.957-60.5
			c5.952-7.367,31.864-53.197,15.354-58.202c-4.735-1.436-17.973,6.971-20.344,8.338c-20.319,11.711-39.298,28.514-54.533,46.258
			c-15.249,17.759-32.545,41.839-31.356,66.735c1.492,31.263,28.72,42.523,56.503,36.906c31.216-6.311,57.273-27.942,84.927-42.351
			c11.997-6.25,31.724-13.558,37.97-26.852c6.932-14.754-4.504-23.128-18.372-23.034c-16.776,0.114-55.039,20.655-52.91,42.6
			c0.584,6.017,1.167,4.707,7.017,9.009c14.633,5.091,29.712,8.117,45.238,9.077c29.52,1.925,59.066-4.305,87.112-12.936
			c18.691-5.751,36.38-13.699,50.382-27.851c6.979-7.054,23.545-29.479,18.464-40.104c-26.755,4.628-21.965,37.436-14.28,54.643
			c4.837,10.83,6.19,22.417,11.474,32.88c6.777,13.423,17.158,16.968,32.105,11.938c39.031-13.136,71.924-75.4,60.753-115.359
			c-16.043-57.385-77.977-17.331-87.546,23.175c-3.454,14.62-1.563,39.801,19.437,37.178"/>
	</g>
</mask>
<g id="Layer_1" mask="url(#Layer_1_2_)">
	<g id="Layer_1_1_">
		<g transform="matrix(1 0 0 1 -4.884433e-012 -9.768866e-012)" enable-background="new    ">
			
				<image overflow="visible" width="2592" height="2376" xlink:href="398046AF.png"  transform="matrix(0.9999 0 0 0.9999 -4.882813e-004 -9.765625e-004)">
			</image>
		</g>
	</g>
</g>
<g id="Layer_2_2_" display="none">
	<path display="inline" fill="none" stroke="#FFFFFF" stroke-width="80" stroke-miterlimit="10" d="M323.338,169.352
		c38.117-5.248,72.559-30.532,77.743-71.198c3.986-31.271-24.45-49.496-53.36-41.342c-29.114,8.211-51.042,43.299-47.058,72.759
		c3.962,29.295,31.011,37.667,57.039,38.895c23.772,1.122,60.357,2.681,77.533-17.838c3.875-4.629,9.104-16.342,5.975-22.546
		c-8.167-16.192-27.971,2.869-32.6,12.123c-7.402,14.798-7.55,44.258,11.208,51.013c6.11,2.2,15.071-1.465,20.156-3.796
		c25.508-11.698,44.963-33.18,54.497-59.176c5.865-15.993,8.155-31.526-13.211-19.03c-13.472,7.879-35.485,35.706-23.702,52.443
		c6.015,8.544,22.994,8.492,31.672,7.818c32.325-2.513,55.72-20.788,80.662-39.247c6.022-4.457,30.532-19.219,20.87-29.755
		c-10.88-11.865-44.596,6.33-52.905,13.034c-13.674,11.032-26.968,37.333-19.909,55.319c6.641,16.922,28.388,25.036,45.525,22.333
		c18.436-2.909,36.157-18.664,47.455-32.546c10.031-12.325,17.488-26.75,20.782-42.318c0.711-3.359,4.318-16.24,2.693-19.557
		c-0.044-0.089-0.333-2.854-0.409-3.238c-17.539-1.542-56.799,43.874-43.73,60.573c11.595,14.817,83.708-5.72,72.234-28.87
		c-11.125-22.448-64.092,35.766-41.782,54.863c10.266,8.788,35.168-0.986,44.575-4.156c16.137-5.439,31.872-12.388,48.048-17.559"/>
	<path display="inline" fill="none" stroke="#FFFFFF" stroke-width="80" stroke-miterlimit="10" d="M881.338,143.352
		c47.014,6.299,109.43-8.592,142.612-46.043c13.02-14.695,2.554-23.625-14.028-30.847c-23.767-10.351-83.24-12.237-77.685,28.396
		c5.997,43.863,76.879,75.179,115.948,64.449c14.73-4.046,37.323-32.378,32.201-49.001c-6.246-20.27-39.432,4.86-44.38,16.746
		c-17.706,42.537,50.009,40.796,74.748,37.992c25.069-2.841,49.117-14.603,66.038-33.289c4.29-4.737,19.431-19.504,15.418-26.399
		c-16.184,18.657,16.908,49.777,29.831,60.857c22.311,19.13,55.458,14.375,81.561,1.959c26.278-12.499,64.866-46.256,50.896-80.827
		c-12.833-31.76-56.34,7.662-67.269,21.126c-18.11,22.31-38.555,57.266-11.713,81.01c41.542,36.748,106.56-22.995,135.057-49.463
		c13.761-12.782,28.188-25.768,37.406-42.425c2.345-4.236,11.184-21.152,7.418-26.417c-14.927-20.875-79.054,40.942-85.44,58.277
		c-5.929,16.09-2.579,29.568,15.375,34.318c31.063,8.219,69.304-4.964,97.657-16.968c34.117-14.444,70.061-30.919,93.957-60.5
		c5.952-7.367,31.864-53.197,15.354-58.202c-4.735-1.436-17.973,6.971-20.344,8.338c-20.319,11.711-39.298,28.514-54.533,46.258
		c-15.249,17.759-32.545,41.839-31.356,66.735c1.492,31.263,28.72,42.523,56.503,36.906c31.216-6.311,57.273-27.942,84.927-42.351
		c11.997-6.25,31.724-13.558,37.97-26.852c6.932-14.754-4.504-23.128-18.372-23.034c-16.776,0.114-55.039,20.655-52.91,42.6
		c0.584,6.017,1.167,4.707,7.017,9.009c14.633,5.091,29.712,8.117,45.238,9.077c29.52,1.925,59.066-4.305,87.112-12.936
		c18.691-5.751,36.38-13.699,50.382-27.851c6.979-7.054,23.545-29.479,18.464-40.104c-26.755,4.628-21.965,37.436-14.28,54.643
		c4.837,10.83,6.19,22.417,11.474,32.88c6.777,13.423,17.158,16.968,32.105,11.938c39.031-13.136,71.924-75.4,60.753-115.359
		c-16.043-57.385-77.977-17.331-87.546,23.175c-3.454,14.62-1.563,39.801,19.437,37.178"/>
</g>
</svg>
