<?xml version="1.0" encoding="utf-8"?>
<!-- Generator: Adobe Illustrator 16.0.2, SVG Export Plug-In . SVG Version: 6.00 Build 0)  -->
<!DOCTYPE svg PUBLIC "-//W3C//DTD SVG 1.1//EN" "http://www.w3.org/Graphics/SVG/1.1/DTD/svg11.dtd">
<svg version="1.1" id="Layer_1" xmlns="http://www.w3.org/2000/svg" xmlns:xlink="http://www.w3.org/1999/xlink" x="0px" y="0px"
	 width="472.231px" height="399.823px" viewBox="0 0 472.231 399.823" enable-background="new 0 0 472.231 399.823"
	 xml:space="preserve">
<g>
	<g>
		<polyline fill="none" stroke="#FFFFFF" stroke-miterlimit="10" points="34.731,34.908 34.731,364.408 466.231,364.408 		"/>
		<g>
			<path fill="#FFFFFF" d="M34.731,28.908c-1.054,2.84-2.852,6.363-4.756,8.547l4.756-1.72l4.755,1.72
				C37.582,35.271,35.784,31.748,34.731,28.908z"/>
		</g>
		<g>
			<path fill="#FFFFFF" d="M472.231,364.408c-2.84,1.054-6.363,2.852-8.547,4.756l1.72-4.756l-1.72-4.755
				C465.868,361.558,469.391,363.355,472.231,364.408z"/>
		</g>
	</g>
</g>
<line fill="none" stroke="#FFFFFF" stroke-miterlimit="10" x1="85.872" y1="281.626" x2="428.18" y2="132.908"/>
<line fill="none" stroke="#FFFFFF" stroke-miterlimit="10" x1="145.487" y1="345.088" x2="319.846" y2="28.908"/>
<text transform="matrix(1 0 0 1 450.6157 385.8311)" fill="#FFFFFF" font-family="'Myriad-Roman'" font-size="24">m</text>
<text transform="matrix(1 0 0 1 0 48.3691)" fill="#FFFFFF" font-family="'Myriad-Roman'" font-size="24">w</text>
<text transform="matrix(1 0 0 1 419.2056 144.4468)" fill="#FFFFFF" font-family="'Myriad-Roman'" font-size="24">   ZZ</text>
<text transform="matrix(1 0 0 1 328.1802 20.0879)" fill="#FFFFFF" font-family="'Myriad-Roman'" font-size="24">LL</text>
<g>
	<line fill="#FFFFFF" x1="210.231" y1="228.908" x2="34.231" y2="228.908"/>
	<g>
		<line fill="none" stroke="#FFFFFF" stroke-miterlimit="10" x1="210.231" y1="228.408" x2="208.231" y2="228.408"/>
		
			<line fill="none" stroke="#FFFFFF" stroke-miterlimit="10" stroke-dasharray="4,4" x1="204.231" y1="228.408" x2="38.231" y2="228.408"/>
		<line fill="none" stroke="#FFFFFF" stroke-miterlimit="10" x1="36.231" y1="228.408" x2="34.231" y2="228.408"/>
	</g>
</g>
<line fill="#FFFFFF" stroke="#FFFFFF" stroke-miterlimit="10" stroke-dasharray="4" x1="209.731" y1="228.908" x2="209.731" y2="364.908"/>
<text transform="matrix(1 0 0 1 0.6157 226.498)" fill="#FFFFFF" font-family="'Myriad-Roman'" font-size="24">w</text>
<text transform="matrix(0.583 0 0 0.583 18.2798 234.4902)" fill="#FFFFFF" font-family="'Myriad-Roman'" font-size="24">0</text>
<text transform="matrix(1 0 0 1 199.1284 385.8311)" fill="#FFFFFF" font-family="'Myriad-Roman'" font-size="24">m</text>
<text transform="matrix(0.583 0 0 0.583 219.1445 393.8232)" fill="#FFFFFF" font-family="'Myriad-Roman'" font-size="24">0</text>
<line fill="none" stroke="#FFFFFF" stroke-miterlimit="10" stroke-dasharray="7" x1="200.487" y1="355.088" x2="374.846" y2="38.908"/>
<g>
	<g>
		<line fill="none" stroke="#FFFFFF" stroke-miterlimit="10" x1="200.487" y1="253.421" x2="202.942" y2="326.492"/>
		<g>
			<polygon fill="#FFFFFF" points="203.18,333.549 198.782,323.742 202.925,325.965 206.908,323.469 			"/>
		</g>
	</g>
</g>
<g>
	<g>
		<line fill="none" stroke="#FFFFFF" stroke-miterlimit="10" x1="221.128" y1="345.088" x2="292.114" y2="205.293"/>
		<g>
			<path fill="#FFFFFF" d="M294.846,199.912c-0.346,3.009-0.338,6.964,0.371,9.774l-3.461-3.687l-5.019-0.619
				C289.423,204.295,292.622,201.967,294.846,199.912z"/>
		</g>
	</g>
</g>
<text transform="matrix(0.583 0 0 0.583 384.5903 56.5845)" fill="#FFFFFF" font-family="'Myriad-Roman'" font-size="48">LL’</text>
</svg>
