<?xml version="1.0" encoding="utf-8"?>
<!-- Generator: Adobe Illustrator 16.0.2, SVG Export Plug-In . SVG Version: 6.00 Build 0)  -->
<!DOCTYPE svg PUBLIC "-//W3C//DTD SVG 1.1//EN" "http://www.w3.org/Graphics/SVG/1.1/DTD/svg11.dtd">
<svg version="1.1" id="Layer_1" xmlns="http://www.w3.org/2000/svg" xmlns:xlink="http://www.w3.org/1999/xlink" x="0px" y="0px"
	 width="960px" height="560px" viewBox="0 0 960 560" enable-background="new 0 0 960 560" xml:space="preserve">

   <style>
                    g {
                        display: none;
                    }
                    
                    g:target {
                        display: inline;
                    }
                </style>

	<g id="barebone">
		<path fill="#FFFFFF" d="M610.243,358.344l0.601,0.96c0.18,0.24,0.3,0.479,0.479,0.72l0,0c0.12-0.24,0.3-0.479,0.42-0.72l0.66-0.96
			h0.84l-1.5,2.16l1.561,2.279h-0.9l-0.66-1.02c-0.18-0.24-0.359-0.48-0.479-0.72l0,0c-0.181,0.239-0.3,0.479-0.48,0.72l-0.66,1.02
			h-0.899l1.62-2.279l-1.5-2.16H610.243L610.243,358.344z"/>
		<path fill="#CED3CC" d="M751.903,348.863h-540.72 M211.184,348.863v-13.5 M288.403,348.863v-6.84 M751.903,335.363v13.5
			 M365.684,348.863v-6.84 M442.903,348.863v-6.84 M520.184,348.863v-6.84 M597.403,348.863v-6.84v-150.3 M674.684,348.863v-6.84"/>
		<path fill="none" stroke="#F2F2F2" stroke-width="1.5" stroke-miterlimit="10" d="M751.903,348.863h-540.72 M211.184,348.863
			v-13.5 M288.403,348.863v-6.84 M751.903,335.363v13.5 M365.684,348.863v-6.84 M442.903,348.863v-6.84 M520.184,348.863v-6.84
			 M597.403,348.863v-6.84v-150.3 M674.684,348.863v-6.84"/>
		<path fill="#FFFFFF" d="M215.383,357.084c0,2.1-0.3,3.6-0.96,4.56c-0.66,0.96-1.62,1.44-3,1.44c-1.38,0-2.4-0.48-3-1.5
			c-0.66-0.96-0.96-2.46-0.96-4.44c0-2.04,0.3-3.54,0.96-4.5c0.66-1.02,1.62-1.5,3-1.5c1.38,0,2.4,0.48,3,1.5
			C215.083,353.604,215.383,355.104,215.383,357.084L215.383,357.084z M213.343,360.624c0.18-0.42,0.3-0.9,0.36-1.5
			c0.06-0.54,0.12-1.2,0.12-2.04c0-0.78-0.06-1.44-0.12-1.98c-0.06-0.6-0.18-1.08-0.36-1.5c-0.18-0.36-0.42-0.66-0.72-0.899
			c-0.3-0.181-0.72-0.301-1.2-0.301s-0.9,0.12-1.2,0.301c-0.3,0.239-0.54,0.539-0.72,0.899c-0.18,0.42-0.3,0.9-0.36,1.5
			c-0.06,0.601-0.12,1.26-0.12,2.04s0,1.44,0.06,1.98s0.18,1.02,0.36,1.439c0.18,0.42,0.42,0.72,0.72,0.9
			c0.36,0.24,0.72,0.359,1.26,0.359c0.48,0,0.9-0.119,1.2-0.3C212.923,361.283,213.164,360.983,213.343,360.624L213.343,360.624z"/>
		
			<rect x="210.823" y="192.503" opacity="0.5" fill-rule="evenodd" clip-rule="evenodd" fill="#7FCBCC" stroke="#F2F2F2" stroke-width="1.5" stroke-miterlimit="10" width="463.5" height="156"/>
		<path fill="#FFFFFF" d="M683.863,362.844h-1.439v-4.92c0-0.36,0-0.72-0.061-1.08c-0.06-0.36-0.12-0.601-0.24-0.84
			c-0.119-0.181-0.3-0.36-0.54-0.48c-0.239-0.06-0.6-0.12-0.96-0.12c-0.42,0-0.84,0.061-1.26,0.301c-0.42,0.18-0.84,0.42-1.2,0.72
			v6.42h-1.439v-12h1.439v4.38c0.42-0.42,0.9-0.72,1.38-0.9c0.48-0.239,0.961-0.3,1.5-0.3c0.9,0,1.62,0.24,2.101,0.84
			c0.479,0.54,0.72,1.32,0.72,2.4V362.844z"/>
		<line fill="#F2F2F2" x1="211.184" y1="192.864" x2="751.903" y2="192.864"/>
		
			<line fill="none" stroke="#FFFFFF" stroke-width="1.5" stroke-miterlimit="10" x1="211.184" y1="192.864" x2="751.903" y2="192.864"/>
		<path fill="#FFFFFF" d="M589.663,363.023c0-2.04,0.42-3.6,1.261-4.68c0.6-0.84,1.319-1.26,2.22-1.26c0.84,0,1.56,0.42,2.1,1.199
			c0.84,1.08,1.261,2.58,1.261,4.5c0,1.801-0.421,3.24-1.2,4.261c-0.66,0.84-1.38,1.199-2.221,1.199c-0.479,0-0.899-0.06-1.319-0.3
			c-0.36-0.239-0.721-0.54-1.021-0.96c-0.239-0.479-0.479-0.899-0.66-1.38C589.844,364.764,589.663,363.924,589.663,363.023
			L589.663,363.023z M595.004,362.424c0-1.32-0.12-2.4-0.36-3.181c-0.18-0.659-0.42-1.079-0.78-1.319c-0.24-0.24-0.479-0.3-0.78-0.3
			c-0.359,0-0.659,0.119-0.96,0.359c-0.3,0.3-0.54,0.78-0.659,1.38c-0.181,0.66-0.24,1.681-0.301,3.061H595.004z M591.163,362.964
			c0,0.899,0.061,1.74,0.181,2.46c0.12,0.54,0.239,1.02,0.479,1.439c0.12,0.24,0.3,0.48,0.54,0.601c0.24,0.18,0.48,0.3,0.78,0.3
			c0.36,0,0.66-0.18,0.96-0.48c0.24-0.3,0.479-0.779,0.66-1.5c0.12-0.659,0.24-1.619,0.24-2.819H591.163L591.163,362.964z"/>
		<path fill="#FFFFFF" d="M597.823,359.544c0-0.48,0-0.84,0-1.2h0.66l0.06,0.72l0,0c0.24-0.42,0.66-0.84,1.44-0.84
			c0.54,0,1.021,0.36,1.2,0.9h0.06c0.12-0.24,0.3-0.42,0.48-0.54c0.24-0.24,0.54-0.36,0.96-0.36c0.6,0,1.439,0.42,1.439,1.92v2.64
			h-0.779v-2.52c0-0.84-0.301-1.38-0.96-1.38c-0.42,0-0.78,0.359-0.96,0.72c0,0.12-0.061,0.3-0.061,0.42v2.76h-0.78v-2.64
			c0-0.72-0.3-1.26-0.899-1.26c-0.48,0-0.9,0.42-1.021,0.84c-0.06,0.12-0.06,0.24-0.06,0.36v2.699h-0.78V359.544L597.823,359.544z"
			/>
		<path fill="#FFFFFF" d="M608.563,361.704c0,0.42,0,0.779,0.06,1.079h-0.72l-0.06-0.54h-0.061c-0.24,0.36-0.72,0.66-1.319,0.66
			c-0.9,0-1.381-0.66-1.381-1.26c0-1.08,0.96-1.68,2.641-1.68v-0.12c0-0.36-0.061-1.021-0.96-1.021c-0.42,0-0.84,0.12-1.2,0.36
			l-0.18-0.54c0.359-0.24,0.899-0.42,1.5-0.42c1.319,0,1.68,0.96,1.68,1.86V361.704L608.563,361.704z M607.783,360.504
			c-0.899,0-1.859,0.18-1.859,1.02c0,0.54,0.3,0.78,0.72,0.78c0.6,0,0.96-0.36,1.08-0.78c0.06-0.06,0.06-0.12,0.06-0.24V360.504z"/>
	</g>
	<g id="athmax">
			<path fill="#FFFFFF" d="M294.043,359.483h1.26l-1.02,3.48c-0.06,0.24-0.18,0.6-0.3,1.08c0.18,0.779,0.36,1.26,0.42,1.38
				c0.18,0.3,0.42,0.42,0.72,0.42c0.18,0,0.42-0.061,0.54-0.24c0.18-0.18,0.3-0.42,0.36-0.78h0.3c-0.06,0.721-0.18,1.261-0.42,1.5
				c-0.24,0.301-0.54,0.42-0.84,0.42s-0.6-0.119-0.78-0.359c-0.24-0.24-0.48-0.78-0.66-1.561c-0.24,0.42-0.48,0.78-0.66,1.021
				c-0.3,0.3-0.66,0.54-1.02,0.72c-0.36,0.12-0.72,0.18-1.2,0.18c-1.14,0-1.98-0.359-2.46-1.079c-0.54-0.78-0.84-1.62-0.84-2.58
				c0-1.141,0.3-2.04,0.96-2.761c0.6-0.72,1.38-1.02,2.22-1.02c0.54,0,1.08,0.12,1.5,0.479c0.48,0.36,0.9,1.021,1.26,2.04
				L294.043,359.483z M293.083,362.664c-0.3-1.08-0.6-1.801-1.08-2.221c-0.42-0.42-0.84-0.6-1.32-0.6s-0.9,0.24-1.26,0.78
				c-0.3,0.6-0.48,1.439-0.48,2.64c0,0.72,0.06,1.32,0.18,1.68c0.18,0.42,0.36,0.721,0.66,0.96c0.3,0.24,0.6,0.36,0.96,0.36
				c0.36,0,0.72-0.18,1.08-0.54C292.244,365.184,292.664,364.164,293.083,362.664L293.083,362.664z"/>
			<path fill="#FFFFFF" d="M297.463,361.464c0-1.98,0.36-3.54,1.2-4.62c0.6-0.84,1.38-1.26,2.22-1.26c0.84,0,1.56,0.42,2.16,1.199
				c0.84,1.08,1.26,2.58,1.26,4.5c0,1.801-0.42,3.24-1.26,4.261c-0.6,0.84-1.38,1.199-2.22,1.199c-0.48,0-0.9-0.119-1.26-0.3
				c-0.42-0.239-0.72-0.54-1.02-1.02c-0.3-0.42-0.54-0.84-0.72-1.32C297.583,363.264,297.463,362.424,297.463,361.464
				L297.463,361.464z M302.804,360.924c0-1.32-0.12-2.4-0.36-3.181c-0.24-0.659-0.48-1.079-0.78-1.38
				c-0.24-0.18-0.54-0.239-0.84-0.239c-0.36,0-0.66,0.119-0.96,0.359c-0.3,0.3-0.48,0.721-0.66,1.38
				c-0.12,0.66-0.24,1.681-0.3,3.061H302.804z M298.903,361.464c0,0.899,0.12,1.74,0.18,2.46c0.12,0.54,0.24,1.02,0.48,1.439
				c0.12,0.24,0.3,0.42,0.54,0.601c0.24,0.18,0.54,0.3,0.84,0.3c0.3,0,0.6-0.18,0.9-0.48c0.3-0.3,0.54-0.779,0.66-1.5
				c0.18-0.659,0.24-1.619,0.3-2.819H298.903z"/>
			<path fill="#FFFFFF" d="M305.624,358.044c0-0.48,0-0.84-0.06-1.2h0.72l0.06,0.72l0,0c0.24-0.42,0.66-0.84,1.44-0.84
				c0.6,0,1.02,0.36,1.2,0.9h0.06c0.12-0.24,0.3-0.42,0.48-0.601c0.3-0.18,0.54-0.3,0.96-0.3c0.6,0,1.5,0.42,1.5,1.92v2.64h-0.78
				v-2.52c0-0.84-0.36-1.38-0.96-1.38c-0.48,0-0.84,0.359-0.96,0.72c-0.06,0.12-0.06,0.3-0.06,0.42v2.76h-0.84v-2.64
				c0-0.72-0.3-1.26-0.9-1.26c-0.48,0-0.9,0.42-1.02,0.84c-0.06,0.12-0.06,0.24-0.06,0.36v2.699h-0.78V358.044z"/>
			<path fill="#FFFFFF" d="M316.423,360.204c0,0.42,0,0.779,0.06,1.079h-0.72l-0.06-0.54h-0.06c-0.24,0.301-0.72,0.66-1.38,0.66
				c-0.9,0-1.32-0.66-1.32-1.319c0-1.08,0.96-1.62,2.64-1.62v-0.12c0-0.36-0.06-1.021-0.96-1.021c-0.48,0-0.9,0.12-1.2,0.36
				l-0.18-0.54c0.36-0.24,0.9-0.42,1.5-0.42c1.32,0,1.68,0.96,1.68,1.86V360.204L316.423,360.204z M315.644,359.004
				c-0.9,0-1.92,0.12-1.92,1.02c0,0.54,0.36,0.78,0.78,0.78c0.6,0,0.96-0.36,1.08-0.78c0.06-0.06,0.06-0.18,0.06-0.24V359.004z"/>
			<path fill="#FFFFFF" d="M318.104,356.844l0.6,0.96c0.18,0.24,0.3,0.479,0.48,0.72l0,0c0.18-0.3,0.3-0.479,0.48-0.72l0.6-0.96h0.9
				l-1.56,2.16l1.56,2.279h-0.9l-0.66-1.02c-0.18-0.24-0.3-0.48-0.48-0.78l0,0c-0.18,0.3-0.3,0.54-0.48,0.78l-0.66,1.02h-0.9
				l1.62-2.279l-1.5-2.16H318.104L318.104,356.844z"/>
		
			<rect x="289.323" y="192.224" opacity="0.4" fill-rule="evenodd" clip-rule="evenodd" fill="#F6FFB2" stroke="#F2F2F2" stroke-width="0.25" stroke-miterlimit="10" width="384" height="156.78"/>
	</g>
</svg>
