<?xml version="1.0" encoding="utf-8"?>
<!-- Generator: Adobe Illustrator 16.0.2, SVG Export Plug-In . SVG Version: 6.00 Build 0)  -->
<!DOCTYPE svg PUBLIC "-//W3C//DTD SVG 1.1//EN" "http://www.w3.org/Graphics/SVG/1.1/DTD/svg11.dtd">
<svg version="1.1" id="Layer_1" xmlns="http://www.w3.org/2000/svg" xmlns:xlink="http://www.w3.org/1999/xlink" x="0px" y="0px"
	 width="754.067px" height="244.242px" viewBox="0 0 754.067 244.242" enable-background="new 0 0 754.067 244.242"
	 xml:space="preserve">
<g id="base">
 
	<linearGradient id="SVGID_1_" gradientUnits="userSpaceOnUse" x1="379.2319" y1="217.4277" x2="379.2319" y2="4.882813e-004">
		<stop  offset="0" style="stop-color:#525252;stop-opacity:0"/>
		<stop  offset="0.1562" style="stop-color:#4C5A56;stop-opacity:0.1562"/>
		<stop  offset="0.3972" style="stop-color:#3C6F60;stop-opacity:0.3972"/>
		<stop  offset="0.6927" style="stop-color:#219372;stop-opacity:0.6927"/>
		<stop  offset="1" style="stop-color:#00BF87"/>
	</linearGradient>
	<path fill="url(#SVGID_1_)" d="M753.317,217.428H5.147 M5.147,217.428v-18.681 M111.993,217.428v-9.464 M753.317,198.747v18.681
		 M218.922,217.428v-9.464 M325.768,217.428v-9.464 M432.698,217.428v-9.464 M539.542,217.428v-9.464V0 M646.471,217.428v-9.464"/>
	<linearGradient id="SVGID_2_" gradientUnits="userSpaceOnUse" x1="379.2319" y1="217.4277" x2="379.2319" y2="198.7471">
		<stop  offset="0" style="stop-color:#525252;stop-opacity:0"/>
		<stop  offset="0.1562" style="stop-color:#4C5A56;stop-opacity:0.1562"/>
		<stop  offset="0.3972" style="stop-color:#3C6F60;stop-opacity:0.3972"/>
		<stop  offset="0.6927" style="stop-color:#219372;stop-opacity:0.6927"/>
		<stop  offset="1" style="stop-color:#00BF87"/>
	</linearGradient>
	<path fill="url(#SVGID_2_)" stroke="#F2F2F2" stroke-width="1.5" stroke-miterlimit="10" d="M753.317,217.428H5.147 M5.147,217.428
		v-18.681 M111.993,217.428v-9.464 M753.317,198.747v18.681 M218.922,217.428v-9.464 M325.768,217.428v-9.464 M432.698,217.428
		v-9.464 M539.542,217.428v-9.464 M646.471,217.428v-9.464"/>
	<linearGradient id="SVGID_3_" gradientUnits="userSpaceOnUse" x1="379.2319" y1="1.5781" x2="379.2319" y2="1.5781">
		<stop  offset="0" style="stop-color:#525252;stop-opacity:0"/>
		<stop  offset="0.1562" style="stop-color:#4C5A56;stop-opacity:0.1562"/>
		<stop  offset="0.3972" style="stop-color:#3C6F60;stop-opacity:0.3972"/>
		<stop  offset="0.6927" style="stop-color:#219372;stop-opacity:0.6927"/>
		<stop  offset="1" style="stop-color:#00BF87"/>
	</linearGradient>
	<line fill="url(#SVGID_3_)" x1="5.147" y1="1.578" x2="753.317" y2="1.578"/>
	<linearGradient id="SVGID_4_" gradientUnits="userSpaceOnUse" x1="379.2319" y1="1.5781" x2="379.2319" y2="1.5781">
		<stop  offset="0" style="stop-color:#525252;stop-opacity:0"/>
		<stop  offset="0.1562" style="stop-color:#4C5A56;stop-opacity:0.1562"/>
		<stop  offset="0.3972" style="stop-color:#3C6F60;stop-opacity:0.3972"/>
		<stop  offset="0.6927" style="stop-color:#219372;stop-opacity:0.6927"/>
		<stop  offset="1" style="stop-color:#00BF87"/>
	</linearGradient>
	
		<line fill="url(#SVGID_4_)" stroke="#FFFFFF" stroke-width="1.5" stroke-miterlimit="10" x1="5.147" y1="1.578" x2="753.317" y2="1.578"/>
	<path fill="#F7FCF3" d="M10.958,228.802c0,2.905-0.415,4.98-1.329,6.31c-0.912,1.328-2.241,1.992-4.15,1.992
		s-3.321-0.664-4.151-2.073C0.416,233.699,0,231.624,0,228.884c0-2.821,0.416-4.897,1.328-6.227c0.914-1.41,2.242-2.075,4.151-2.075
		c1.91,0,3.32,0.665,4.15,2.075C10.543,223.986,10.958,226.063,10.958,228.802L10.958,228.802z M8.136,233.699
		c0.249-0.58,0.415-1.246,0.499-2.075c0.083-0.747,0.166-1.66,0.166-2.822c0-1.079-0.082-1.993-0.166-2.739
		c-0.083-0.83-0.25-1.496-0.499-2.076c-0.249-0.497-0.581-0.911-0.996-1.242c-0.415-0.251-0.996-0.417-1.66-0.417
		s-1.246,0.166-1.661,0.417c-0.415,0.331-0.747,0.745-0.996,1.242c-0.25,0.58-0.415,1.246-0.498,2.076s-0.166,1.742-0.166,2.821
		c0,1.08,0,1.993,0.083,2.74s0.25,1.411,0.498,1.992c0.25,0.581,0.582,0.995,0.997,1.245c0.498,0.332,0.996,0.498,1.743,0.498
		c0.664,0,1.245-0.166,1.66-0.416C7.555,234.611,7.887,234.197,8.136,233.699L8.136,233.699z"/>
	<path fill="#F7FCF3" d="M659.172,236.771h-1.992v-6.809c0-0.499,0-0.996-0.084-1.494c-0.082-0.499-0.166-0.83-0.332-1.162
		c-0.164-0.25-0.414-0.498-0.746-0.664c-0.33-0.082-0.83-0.166-1.328-0.166c-0.58,0-1.162,0.084-1.742,0.416
		c-0.582,0.25-1.162,0.582-1.662,0.996v8.883h-1.99v-16.604h1.99v6.062c0.582-0.582,1.246-0.996,1.91-1.246
		c0.664-0.33,1.33-0.416,2.074-0.416c1.246,0,2.242,0.332,2.906,1.162c0.664,0.748,0.996,1.828,0.996,3.322V236.771z"/>
	<linearGradient id="SVGID_5_" gradientUnits="userSpaceOnUse" x1="325.3105" y1="216.9297" x2="325.3105" y2="1.0796">
		<stop  offset="0" style="stop-color:#525252;stop-opacity:0"/>
		<stop  offset="0.1562" style="stop-color:#4C5A56;stop-opacity:0.1562"/>
		<stop  offset="0.3972" style="stop-color:#3C6F60;stop-opacity:0.3972"/>
		<stop  offset="0.6927" style="stop-color:#219372;stop-opacity:0.6927"/>
		<stop  offset="1" style="stop-color:#00BF87"/>
	</linearGradient>
	
		<rect x="4.648" y="1.079" opacity="0.5" fill="url(#SVGID_5_)" stroke="#F2F2F2" stroke-width="1.5" stroke-miterlimit="10" enable-background="new    " width="641.325" height="215.851"/>
</g>
<g id="thmax">
	<path fill="#FFFFFF" d="M528.833,237.02c0-2.82,0.582-4.979,1.746-6.476c0.828-1.161,1.824-1.742,3.07-1.742
		c1.16,0,2.156,0.581,2.904,1.659c1.162,1.495,1.744,3.569,1.744,6.227c0,2.492-0.582,4.483-1.66,5.896
		c-0.914,1.161-1.908,1.659-3.072,1.659c-0.664,0-1.244-0.082-1.826-0.415c-0.498-0.33-0.996-0.747-1.41-1.328
		c-0.332-0.664-0.664-1.245-0.914-1.909C529.083,239.428,528.833,238.266,528.833,237.02L528.833,237.02z M536.221,236.189
		c0-1.828-0.166-3.32-0.498-4.4c-0.248-0.912-0.58-1.492-1.08-1.825c-0.332-0.333-0.662-0.415-1.078-0.415
		c-0.498,0-0.912,0.165-1.328,0.498c-0.416,0.414-0.748,1.079-0.912,1.909c-0.25,0.913-0.332,2.324-0.416,4.233H536.221
		L536.221,236.189z M530.909,236.938c0,1.246,0.084,2.407,0.25,3.404c0.166,0.747,0.33,1.41,0.662,1.991
		c0.168,0.332,0.416,0.665,0.748,0.83c0.332,0.249,0.666,0.416,1.08,0.416c0.498,0,0.912-0.249,1.328-0.665
		c0.332-0.415,0.662-1.079,0.912-2.075c0.166-0.913,0.332-2.241,0.332-3.901H530.909L530.909,236.938z"/>
	<path fill="#FFFFFF" d="M557.307,230.544l0.832,1.329c0.248,0.333,0.414,0.664,0.662,0.996l0,0
		c0.168-0.332,0.416-0.663,0.582-0.996l0.914-1.329h1.162l-2.076,2.99l2.16,3.153h-1.246l-0.914-1.412
		c-0.248-0.332-0.498-0.664-0.664-0.995l0,0c-0.25,0.331-0.414,0.663-0.664,0.995l-0.914,1.412h-1.242l2.24-3.153l-2.076-2.99
		H557.307L557.307,230.544z"/>
	<path fill="#FFFFFF" d="M540.124,232.206c0-0.666,0-1.163,0-1.662h0.914l0.082,0.996l0,0c0.332-0.58,0.914-1.161,1.992-1.161
		c0.748,0,1.412,0.498,1.662,1.245h0.082c0.166-0.332,0.414-0.581,0.664-0.747c0.332-0.333,0.748-0.498,1.328-0.498
		c0.83,0,1.99,0.581,1.99,2.656v3.652h-1.078v-3.486c0-1.162-0.414-1.909-1.326-1.909c-0.582,0-1.08,0.497-1.328,0.996
		c0,0.165-0.084,0.414-0.084,0.581v3.818h-1.08v-3.652c0-0.996-0.414-1.743-1.244-1.743c-0.664,0-1.246,0.581-1.412,1.161
		c-0.082,0.167-0.082,0.334-0.082,0.499v3.735h-1.08V232.206L540.124,232.206z"/>
	<path fill="#FFFFFF" d="M554.985,235.193c0,0.582,0,1.08,0.082,1.494h-0.996l-0.082-0.748h-0.084
		c-0.332,0.498-0.996,0.914-1.826,0.914c-1.244,0-1.91-0.914-1.91-1.744c0-1.493,1.328-2.322,3.654-2.322v-0.167
		c0-0.499-0.084-1.412-1.328-1.412c-0.582,0-1.162,0.166-1.66,0.499l-0.25-0.747c0.498-0.332,1.244-0.581,2.076-0.581
		c1.824,0,2.324,1.328,2.324,2.573V235.193L554.985,235.193z M553.905,233.534c-1.244,0-2.572,0.248-2.572,1.409
		c0,0.748,0.414,1.08,0.996,1.08c0.828,0,1.328-0.498,1.494-1.08c0.082-0.082,0.082-0.166,0.082-0.332V233.534L553.905,233.534z"/>
	<line fill="none" stroke="#F2F2F2" stroke-width="1.5" stroke-miterlimit="10" x1="539.542" y1="0" x2="539.542" y2="207.964"/>
</g>
<g id="athmax">
	<path fill="#FFFFFF" d="M117.907,233.43h1.75l-1.416,4.816c-0.083,0.332-0.25,0.829-0.417,1.494c0.25,1.078,0.5,1.742,0.583,1.91
		c0.25,0.414,0.583,0.58,1,0.58c0.25,0,0.583-0.084,0.75-0.332c0.25-0.248,0.417-0.582,0.5-1.08h0.416
		c-0.083,0.996-0.249,1.744-0.583,2.074c-0.333,0.418-0.749,0.582-1.166,0.582c-0.416,0-0.833-0.164-1.083-0.496
		c-0.334-0.334-0.667-1.08-0.917-2.16c-0.333,0.582-0.667,1.08-0.917,1.412c-0.417,0.414-0.916,0.748-1.417,0.994
		c-0.5,0.168-1,0.25-1.666,0.25c-1.583,0-2.749-0.496-3.416-1.492c-0.75-1.08-1.167-2.242-1.167-3.57
		c0-1.578,0.417-2.823,1.333-3.819c0.833-0.995,1.917-1.411,3.083-1.411c0.75,0,1.5,0.166,2.083,0.664
		c0.667,0.498,1.25,1.411,1.75,2.822L117.907,233.43z M116.574,237.831c-0.417-1.494-0.833-2.492-1.5-3.072
		c-0.583-0.581-1.167-0.83-1.833-0.83c-0.667,0-1.25,0.332-1.75,1.079c-0.417,0.83-0.667,1.993-0.667,3.653
		c0,0.995,0.083,1.825,0.25,2.323c0.25,0.58,0.5,0.998,0.917,1.328c0.416,0.332,0.833,0.498,1.333,0.498s0.999-0.248,1.5-0.746
		C115.407,241.316,115.991,239.906,116.574,237.831L116.574,237.831z"/>
	<path fill="#FFFFFF" d="M122.656,236.17c0-2.74,0.5-4.896,1.667-6.393c0.833-1.162,1.916-1.743,3.082-1.743
		c1.167,0,2.167,0.581,3,1.659c1.167,1.494,1.75,3.57,1.75,6.227c0,2.492-0.583,4.482-1.75,5.896
		c-0.833,1.162-1.916,1.658-3.082,1.658c-0.667,0-1.25-0.164-1.75-0.414c-0.584-0.33-1.001-0.746-1.417-1.41
		c-0.417-0.58-0.75-1.162-1-1.826C122.823,238.661,122.656,237.498,122.656,236.17L122.656,236.17z M130.072,235.424
		c0-1.826-0.167-3.322-0.5-4.4c-0.333-0.912-0.667-1.493-1.083-1.909c-0.333-0.249-0.75-0.331-1.166-0.331
		c-0.5,0-0.917,0.165-1.333,0.497c-0.416,0.413-0.667,0.997-0.916,1.909c-0.167,0.912-0.334,2.326-0.417,4.234H130.072z
		 M124.656,236.17c0,1.245,0.167,2.408,0.25,3.404c0.167,0.746,0.333,1.41,0.667,1.99c0.167,0.334,0.416,0.582,0.749,0.832
		c0.333,0.248,0.75,0.414,1.167,0.414s0.833-0.248,1.25-0.664c0.417-0.414,0.75-1.078,0.917-2.076c0.25-0.91,0.333-2.239,0.417-3.9
		H124.656z"/>
	<path fill="#FFFFFF" d="M133.988,231.438c0-0.664,0-1.162-0.084-1.66h1l0.083,0.996l0,0c0.333-0.582,0.917-1.162,2-1.162
		c0.833,0,1.417,0.498,1.666,1.246h0.084c0.167-0.334,0.417-0.582,0.666-0.83c0.417-0.25,0.75-0.416,1.333-0.416
		c0.833,0,2.083,0.58,2.083,2.656v3.651h-1.083v-3.485c0-1.162-0.5-1.91-1.333-1.91c-0.667,0-1.167,0.498-1.333,0.996
		c-0.083,0.168-0.083,0.416-0.083,0.582v3.817h-1.167v-3.651c0-0.996-0.416-1.744-1.25-1.744c-0.667,0-1.25,0.582-1.417,1.164
		c-0.083,0.164-0.083,0.332-0.083,0.498v3.733h-1.083L133.988,231.438L133.988,231.438z"/>
	<path fill="#FFFFFF" d="M148.985,234.428c0,0.58,0,1.078,0.083,1.492h-0.999l-0.083-0.746h-0.083c-0.334,0.415-1,0.913-1.916,0.913
		c-1.25,0-1.834-0.913-1.834-1.826c0-1.493,1.333-2.241,3.667-2.241v-0.166c0-0.498-0.083-1.412-1.333-1.412
		c-0.666,0-1.25,0.166-1.667,0.498l-0.25-0.746c0.5-0.332,1.25-0.582,2.083-0.582c1.833,0,2.333,1.328,2.333,2.574L148.985,234.428
		L148.985,234.428z M147.902,232.768c-1.25,0-2.667,0.166-2.667,1.41c0,0.747,0.5,1.079,1.083,1.079c0.833,0,1.333-0.498,1.5-1.079
		c0.083-0.082,0.083-0.248,0.083-0.332L147.902,232.768L147.902,232.768z"/>
	<path fill="#FFFFFF" d="M151.318,229.777l0.833,1.328c0.25,0.332,0.417,0.664,0.667,0.996l0,0c0.25-0.414,0.417-0.664,0.667-0.996
		l0.833-1.328h1.25l-2.167,2.988l2.167,3.153h-1.25l-0.917-1.41c-0.25-0.332-0.417-0.664-0.666-1.079l0,0
		c-0.25,0.415-0.417,0.747-0.667,1.079l-0.917,1.41h-1.25l2.249-3.153l-2.083-2.988H151.318L151.318,229.777z"/>
	
		<linearGradient id="SVGID_6_" gradientUnits="userSpaceOnUse" x1="377.9722" y1="26.3125" x2="377.9722" y2="243.2427" gradientTransform="matrix(1 0 0 -1 0 245.2422)">
		<stop  offset="0" style="stop-color:#020202;stop-opacity:0"/>
		<stop  offset="0.1624" style="stop-color:#30261B;stop-opacity:0.1624"/>
		<stop  offset="0.3712" style="stop-color:#655038;stop-opacity:0.3712"/>
		<stop  offset="0.5666" style="stop-color:#8F714F;stop-opacity:0.5666"/>
		<stop  offset="0.7425" style="stop-color:#AD895F;stop-opacity:0.7425"/>
		<stop  offset="0.8929" style="stop-color:#BF9769;stop-opacity:0.8929"/>
		<stop  offset="1" style="stop-color:#C69C6D"/>
	</linearGradient>
	
		<rect x="111.353" y="2" opacity="0.7" fill="url(#SVGID_6_)" stroke="#F2F2F2" stroke-width="0.25" stroke-miterlimit="10" enable-background="new    " width="533.237" height="216.93"/>
</g>
</svg>
